<svg xmlns="http://www.w3.org/2000/svg" width="343.728" height="63.443" viewBox="208 31.189 343.728 63.443"><g data-name="Group 2"><g data-name="Group 1" transform="translate(208 31.19)" clip-path="url(&quot;#a&quot;)"><path d="M0 15.82h9.323c5.49 0 9.992 1.907 9.992 8.062 0 5.949-4.501 8.51-9.992 8.51h-3.47v9.316H0V15.82Zm8.847 11.925c3.078 0 4.732-1.317 4.732-3.863 0-2.56-1.654-3.415-4.732-3.415H5.852v7.278h2.995Zm-.594 3.104 4.048-3.745 8.262 14.604h-6.55l-5.76-10.859Z" fill="#fff" fill-rule="evenodd" data-name="Path 1"/><path d="M21.37 15.82h16.22v4.91H27.222v5.197h8.826v4.909h-8.826V36.8h10.765v4.908H21.369V15.82Z" fill="#fff" fill-rule="evenodd" data-name="Path 2"/><path d="m38.483 38.442 3.361-4.015c1.841 1.602 4.229 2.705 6.36 2.705 2.442 0 3.638-.962 3.638-2.5 0-1.629-1.472-2.152-3.733-3.082l-3.364-1.434c-2.683-1.091-5.225-3.295-5.225-7.056 0-4.29 3.832-7.716 9.22-7.716 2.982 0 6.1 1.175 8.329 3.393l-2.955 3.688c-1.706-1.308-3.327-2.028-5.373-2.028-2.018 0-3.302.841-3.302 2.322 0 1.587 1.693 2.164 3.952 3.064l3.3 1.336c3.16 1.278 5.135 3.383 5.135 7.042 0 4.299-3.585 8.024-9.753 8.024-3.37 0-6.949-1.276-9.59-3.743" fill="#fff" fill-rule="evenodd" data-name="Path 3"/><path d="M58.038 28.914c0-8.588 5.678-13.57 12.22-13.57 3.346 0 6.042 1.575 7.785 3.36l-3.085 3.754c-1.299-1.21-2.695-2.06-4.57-2.06-3.55 0-6.353 3.13-6.353 8.32 0 5.321 2.476 8.413 6.26 8.413 2.126 0 3.799-1.046 5.065-2.42l3.085 3.675c-2.15 2.5-5.01 3.799-8.36 3.799-6.565 0-12.047-4.552-12.047-13.27" fill="#fff" fill-rule="evenodd" data-name="Path 4"/><path d="M78.54 29.712V15.82h5.853v14.49c0 5.068 1.597 6.82 4.493 6.82 2.91 0 4.588-1.752 4.588-6.82V15.82h5.642v13.89c0 8.693-3.533 12.474-10.23 12.474-6.697 0-10.346-3.781-10.346-12.473" fill="#fff" fill-rule="evenodd" data-name="Path 5"/><path d="M102.12 15.82h16.22v4.91h-10.368v5.197h8.826v4.909h-8.826V36.8h10.765v4.908H102.12V15.82Z" fill="#fff" fill-rule="evenodd" data-name="Path 6"/><path d="M180.485 15.82h9.324c5.49 0 9.99 1.907 9.99 8.062 0 5.949-4.5 8.51-9.99 8.51h-3.471v9.316h-5.853V15.82Zm8.847 11.925c3.078 0 4.732-1.317 4.732-3.863 0-2.56-1.654-3.415-4.732-3.415h-2.994v7.278h2.994Zm-.594 3.104 4.048-3.745 8.262 14.604h-6.55l-5.76-10.859Z" fill="#fff" fill-rule="evenodd" data-name="Path 7"/><path d="M201.854 15.82h16.221v4.91h-10.368v5.197h8.826v4.909h-8.826V36.8h10.765v4.908h-16.618V15.82Z" fill="#fff" fill-rule="evenodd" data-name="Path 8"/><path d="M220.641 15.82h6.386l4.2 11.503c.519 1.528.971 3.187 1.49 4.78h.16c.517-1.593.956-3.252 1.475-4.78l4.07-11.502h6.385v25.887h-5.329v-9.5c0-2.523.472-6.29.748-8.795h-.159l-2.124 6.126-3.66 9.917h-3.248l-3.668-9.917-2.064-6.126h-.16c.276 2.504.748 6.272.748 8.795v9.5h-5.25V15.82Z" fill="#fff" fill-rule="evenodd" data-name="Path 9"/><path d="M246.705 28.652c0-8.458 4.776-13.308 11.757-13.308 6.982 0 11.758 4.883 11.758 13.308 0 8.458-4.776 13.533-11.758 13.533-6.981 0-11.757-5.075-11.757-13.533m17.517 0c0-5.19-2.228-8.255-5.76-8.255-3.53 0-5.76 3.065-5.76 8.255 0 5.19 2.23 8.48 5.76 8.48 3.532 0 5.76-3.29 5.76-8.48" fill="#fff" fill-rule="evenodd" data-name="Path 10"/><path d="M268.38 15.82h6.194l3.12 12.064c.772 2.831 1.29 5.444 2.075 8.301h.16c.784-2.857 1.335-5.47 2.073-8.3l3.055-12.064h5.984l-7.808 25.887h-7.03L268.38 15.82Z" fill="#fff" fill-rule="evenodd" data-name="Path 11"/><path d="M294.93 15.82h7.002l8.13 25.888h-6.194l-3.387-13.11c-.719-2.59-1.41-5.65-2.102-8.35h-.159c-.626 2.733-1.317 5.76-2.037 8.35l-3.4 13.11h-5.984l8.13-25.887Zm-2.77 15.173h12.456v4.549H292.16v-4.549Z" fill="#fff" fill-rule="evenodd" data-name="Path 12"/><path d="M309.575 15.82h5.853V36.8h10.218v4.908h-16.071V15.82Z" fill="#fff" fill-rule="evenodd" data-name="Path 13"/><path d="m324.386 38.442 3.36-4.015c1.841 1.602 4.23 2.705 6.36 2.705 2.443 0 3.638-.962 3.638-2.5 0-1.629-1.472-2.152-3.733-3.082l-3.364-1.434c-2.682-1.091-5.224-3.295-5.224-7.056 0-4.29 3.832-7.716 9.22-7.716 2.981 0 6.099 1.175 8.328 3.393l-2.954 3.688c-1.706-1.308-3.327-2.028-5.374-2.028-2.018 0-3.302.841-3.302 2.322 0 1.587 1.694 2.164 3.953 3.064l3.298 1.336c3.162 1.278 5.136 3.383 5.136 7.042 0 4.299-3.584 8.024-9.753 8.024-3.37 0-6.949-1.276-9.59-3.743" fill="#fff" fill-rule="evenodd" data-name="Path 14"/><path d="M129.833 54.317c.137-3.586 1.619-6.21 4.496-8.019.47-.295.62-.538.476-1.107-3.023-11.919-6.022-23.844-9.024-35.769-.368-1.463-.74-2.926-1.082-4.396-.111-.477-.312-.674-.836-.71-1.902-.128-3.801-.306-5.697-.503-1.306-.135-2.056-1.006-1.954-2.147.08-.885 1.114-1.804 2.334-1.649 2.43.307 4.881.449 7.324.655 1.166.099 1.803.615 2.09 1.753 2.66 10.557 5.316 21.114 7.972 31.671.857 3.408 1.719 6.813 2.553 10.225.124.51.357.645.866.657 3.022.073 5.42 1.39 7.229 3.784.307.407.547.561 1.088.422 8.672-2.236 17.351-4.444 26.029-6.658 1.469-.375 2.662.612 2.536 2.098-.067.784-.512 1.317-1.289 1.516-8.509 2.177-17.018 4.353-25.529 6.526-1.098.28-1.1.272-1.062 1.366.162 4.59-3.459 8.833-7.978 9.346-4.977.565-9.457-2.607-10.329-7.33-.116-.63-.158-1.273-.213-1.73m15.558-.005c.076-3.438-2.655-6.32-6.066-6.403-3.504-.086-6.424 2.625-6.508 6.04-.088 3.603 2.582 6.446 6.143 6.543 3.508.095 6.353-2.639 6.431-6.18" fill="#fff" fill-rule="evenodd" data-name="Path 15"/><path d="m138.357 30.988 23.41-5.942c1.353 5.328 2.698 10.615 4.07 16.02-.89.242-1.755.49-2.627.71-4.959 1.26-9.923 2.502-14.877 3.78-.596.153-.965.092-1.398-.405-1.328-1.524-3.028-2.438-5.035-2.754-.366-.057-.69-.082-.811-.57-.883-3.574-1.796-7.142-2.732-10.839" fill="#fde400" fill-rule="evenodd" data-name="Path 16"/><path d="m137.955 29.41-3.09-12.169 16.838-4.276 3.09 12.173-16.838 4.273" fill="#fff" fill-rule="evenodd" data-name="Path 17"/><path d="m132.213 6.707 12.514-3.176 2.296 9.04-12.512 3.18-2.298-9.044" fill="#fde400" fill-rule="evenodd" data-name="Path 18"/><path d="M135.343 54.216c.008 2.085 1.723 3.806 3.77 3.783 2.067-.024 3.79-1.748 3.794-3.798.004-2.052-1.73-3.763-3.806-3.753-2.116.01-3.767 1.665-3.758 3.768" fill="#fff" fill-rule="evenodd" data-name="Path 19"/><path d="M135.342 54.216c-.008-2.103 1.643-3.758 3.759-3.768 2.075-.01 3.81 1.7 3.805 3.753-.004 2.05-1.726 3.774-3.793 3.798-2.047.023-3.762-1.698-3.77-3.783" fill="#fff" fill-rule="evenodd" data-name="Path 20"/></g></g><defs><clipPath id="a"><path d="M0 0h343.727v63.443H0V0z" data-name="Rectangle 3"/></clipPath></defs></svg>